<svg width="32" height="33" viewBox="0 0 32 33" fill="none" xmlns="http://www.w3.org/2000/svg">
<path d="M25.5298 14.9014C25.3892 15.0419 25.1986 15.1207 24.9998 15.1207C24.8011 15.1207 24.6105 15.0419 24.4698 14.9014L16.7498 7.18266V27.3714C16.7498 27.5703 16.6708 27.7611 16.5302 27.9017C16.3895 28.0424 16.1988 28.1214 15.9998 28.1214C15.8009 28.1214 15.6102 28.0424 15.4695 27.9017C15.3289 27.7611 15.2498 27.5703 15.2498 27.3714L15.2498 7.18266L7.52985 14.9014C7.38767 15.0339 7.19963 15.106 7.00532 15.1026C6.81102 15.0992 6.62564 15.0204 6.48822 14.883C6.35081 14.7456 6.2721 14.5602 6.26867 14.3659C6.26524 14.1716 6.33737 13.9836 6.46985 13.8414L15.4698 4.84141C15.6105 4.70096 15.8011 4.62207 15.9998 4.62207C16.1986 4.62207 16.3892 4.70096 16.5298 4.84141L25.5298 13.8414C25.6703 13.982 25.7492 14.1727 25.7492 14.3714C25.7492 14.5702 25.6703 14.7608 25.5298 14.9014Z" fill="black"/>
</svg>
