<svg width="800" height="801" viewBox="0 0 800 801" fill="none" xmlns="http://www.w3.org/2000/svg">
<g opacity="0.65" clip-path="url(#clip0_169_991)">
<path d="M399.938 0.491211C179.5 0.491211 0.1875 179.804 0.1875 400.241C0.1875 620.741 179.5 800.054 399.938 800.054C620.375 800.054 799.75 620.741 799.75 400.241C799.812 179.804 620.375 0.491211 399.938 0.491211Z" fill="#E8E8E8"/>
<mask id="mask0_169_991" style="mask-type:luminance" maskUnits="userSpaceOnUse" x="0" y="0" width="800" height="801">
<path d="M399.938 0.491211C179.5 0.491211 0.1875 179.804 0.1875 400.241C0.1875 620.741 179.5 800.054 399.938 800.054C620.375 800.054 799.75 620.741 799.75 400.241C799.812 179.804 620.375 0.491211 399.938 0.491211Z" fill="white"/>
</mask>
<g mask="url(#mask0_169_991)">
<mask id="mask1_169_991" style="mask-type:luminance" maskUnits="userSpaceOnUse" x="-26" y="-25" width="852" height="851">
<path d="M825.125 400.241C825.125 635.054 634.75 825.366 399.938 825.366C165.188 825.366 -25.1875 634.991 -25.1875 400.241C-25.1875 165.429 165.125 -24.8838 399.938 -24.8838C634.813 -24.8838 825.125 165.429 825.125 400.241Z" fill="white"/>
</mask>
<g mask="url(#mask1_169_991)">
<path d="M740.375 146.428C738.125 146.428 735.812 145.741 733.938 144.366C717.25 132.741 699.75 138.553 698.938 138.803C693.062 140.803 686.5 137.678 684.438 131.803C682.375 125.866 685.438 119.366 691.312 117.303C692.312 116.928 712.375 109.928 734.625 118.991C746 97.8033 765.938 90.3658 766.875 89.9908C772.812 87.8658 779.375 90.9283 781.438 96.8658C783.563 102.741 780.625 109.241 774.688 111.428C774 111.741 756.75 118.491 751.375 138.053C750.375 141.616 747.75 144.491 744.25 145.803C743 146.241 741.75 146.428 740.375 146.428ZM761.312 204.241C759 204.241 756.75 203.553 754.812 202.178C738.188 190.553 720.625 196.366 719.938 196.616C714.063 198.616 707.5 195.553 705.438 189.616C703.375 183.678 706.312 177.241 712.25 175.116C713.25 174.803 733.312 167.741 755.562 176.803C766.938 155.616 786.813 148.178 787.813 147.803C793.75 145.678 800.313 148.741 802.438 154.678C804.563 160.553 801.563 167.053 795.688 169.241C794.75 169.616 777.75 176.366 772.438 195.866C771.438 199.428 768.812 202.303 765.312 203.616C763.938 204.053 762.625 204.241 761.312 204.241ZM762.813 262.366C761.625 262.366 760.438 262.178 759.25 261.866C755.75 260.678 753 257.928 751.938 254.303C745.938 234.866 728.062 228.553 727.875 228.491C726.454 228.024 725.14 227.282 724.006 226.306C722.873 225.331 721.943 224.142 721.269 222.807C720.596 221.471 720.193 220.017 720.082 218.525C719.971 217.034 720.156 215.536 720.625 214.116C722.563 208.116 729 204.866 735 206.803C736 207.116 756.125 213.928 768.125 234.741C790.125 225.053 810.375 231.366 811.375 231.741C817.375 233.678 820.688 240.116 818.688 246.116C816.75 252.116 810.375 255.428 804.375 253.428C803.5 253.178 785.875 247.991 769.625 260.178C767.625 261.616 765.25 262.366 762.813 262.366ZM743.75 320.866C741.318 320.845 738.954 320.053 737 318.604C735.046 317.156 733.602 315.125 732.875 312.803C726.875 293.366 709.5 287.178 708.75 286.928C702.875 284.866 699.625 278.491 701.625 272.553C703.625 266.616 710 263.366 715.938 265.303C716.938 265.616 737.125 272.428 749.062 293.241C771.062 283.553 791.313 289.928 792.375 290.241C798.313 292.178 801.625 298.678 799.625 304.616C797.688 310.616 791.313 313.928 785.375 311.928C784.438 311.678 766.812 306.553 750.625 318.678C748.625 320.053 746.188 320.866 743.75 320.866ZM748.938 391.616C745 391.616 741.062 389.553 739.062 385.866C738.562 385.053 729.062 369.366 708.938 367.241C705.25 366.866 702 364.741 700.188 361.491C698.438 358.241 698.25 354.366 699.875 350.991C708.625 332.553 699.812 315.803 699.688 315.678C696.562 310.178 698.562 303.178 704.062 300.178C709.625 297.053 716.562 299.053 719.562 304.553C720.062 305.491 730.312 324.178 725.125 347.491C747.812 355.241 758.438 373.678 758.938 374.616C762 380.116 760.063 387.053 754.563 390.116C752.75 391.178 750.75 391.616 748.938 391.616ZM695.25 421.678C691.312 421.678 687.438 419.616 685.375 415.928C684.813 415.116 675.375 399.428 655.25 397.303C653.438 397.089 651.701 396.452 650.181 395.442C648.661 394.432 647.4 393.078 646.5 391.491C644.688 388.303 644.562 384.303 646.188 381.053C654.938 362.616 646.125 345.866 646.063 345.741C642.938 340.303 644.875 333.241 650.438 330.241C655.938 327.116 662.875 329.116 665.938 334.553C666.5 335.491 676.688 354.116 671.438 377.553C694.125 385.303 704.75 403.741 705.25 404.678C708.312 410.178 706.375 417.053 700.875 420.178C699.125 421.241 697.188 421.678 695.25 421.678ZM641.688 451.803C637.75 451.803 633.812 449.741 631.688 446.053C631.25 445.241 621.812 429.491 601.688 427.428C598 427.053 594.688 424.866 592.875 421.678C591.062 418.428 590.938 414.491 592.562 411.178C601.312 392.741 592.438 375.991 592.375 375.866C589.25 370.366 591.25 363.366 596.75 360.366C602.25 357.303 609.25 359.241 612.25 364.741C612.75 365.678 623 384.303 617.75 407.741C640.5 415.491 651.062 433.928 651.625 434.803C654.688 440.303 652.688 447.241 647.25 450.366C645.438 451.366 643.5 451.803 641.688 451.803ZM591.188 480.428C587.562 480.428 584 478.678 581.75 475.491C581.312 474.803 570.5 459.866 550.188 459.491C546.5 459.428 543.063 457.616 540.938 454.491C538.875 451.428 538.438 447.553 539.688 444.053C546.875 424.928 536.625 409.053 536.5 408.928C532.938 403.678 534.312 396.553 539.562 393.116C544.75 389.553 551.875 390.928 555.438 396.116C556.063 396.991 567.75 414.678 564.562 438.491C587.875 444.241 600 461.678 600.625 462.616C604.188 467.803 602.875 474.866 597.688 478.428C595.562 479.803 593.312 480.428 591.188 480.428ZM540.25 514.991C536.625 514.991 533.062 513.303 530.812 510.053C530.312 509.241 519.5 494.428 499.312 494.053C495.562 493.991 492.125 492.116 490.063 489.053C487.938 485.991 487.5 482.116 488.812 478.616C495.938 459.553 485.688 443.616 485.563 443.428C484.724 442.19 484.137 440.797 483.837 439.332C483.537 437.866 483.529 436.356 483.813 434.887C484.098 433.418 484.669 432.02 485.495 430.772C486.32 429.524 487.384 428.452 488.625 427.616C493.812 424.116 501 425.428 504.438 430.678C505.062 431.491 516.875 449.303 513.625 473.053C536.938 478.803 549.062 496.303 549.688 497.116C553.188 502.366 551.875 509.491 546.625 512.928C544.778 514.285 542.542 515.009 540.25 514.991ZM489.375 549.553C485.75 549.553 482.188 547.866 480 544.616C479.438 543.803 468.625 529.053 448.438 528.678C444.75 528.616 441.312 526.741 439.188 523.741C437.062 520.616 436.625 516.741 437.938 513.303C445.125 494.241 434.812 478.303 434.75 478.116C431.188 472.866 432.563 465.866 437.813 462.303C440.312 460.619 443.375 459.99 446.336 460.551C449.297 461.113 451.916 462.821 453.625 465.303C454.25 466.178 466 483.928 462.75 507.678C486.063 513.428 498.188 530.928 498.812 531.803C502.375 536.991 501 544.053 495.75 547.616C493.812 548.866 491.625 549.553 489.375 549.553ZM409.125 572.928C407.5 572.928 405.75 572.553 404.188 571.866C400.875 570.241 398.5 567.116 397.938 563.491C394.5 543.428 378.063 535.053 377.313 534.678C371.688 531.866 369.313 525.053 372.125 519.491C374.875 513.803 381.625 511.491 387.25 514.116C388.25 514.553 407.312 523.928 416.5 546.116C439.625 539.303 458.875 548.303 459.812 548.741C465.5 551.428 467.938 558.241 465.188 563.928C462.5 569.553 455.75 571.991 450.063 569.366C449.25 568.991 432.5 561.553 414.75 571.491C412.938 572.428 411.062 572.928 409.125 572.928ZM382.625 628.428C380.938 628.428 379.25 628.116 377.75 627.366C374.375 625.741 372 622.678 371.438 619.053C368 598.991 351.563 590.553 350.813 590.178C349.475 589.514 348.281 588.592 347.299 587.466C346.317 586.339 345.567 585.031 345.091 583.615C344.615 582.199 344.423 580.703 344.525 579.212C344.628 577.722 345.023 576.266 345.688 574.928C348.375 569.303 355.125 566.928 360.813 569.678C361.75 570.116 380.875 579.491 390.063 601.678C413 594.866 432.375 603.866 433.313 604.303C439.063 606.991 441.438 613.803 438.75 619.491C436.062 625.178 429.25 627.616 423.625 624.928C422.75 624.616 406 617.116 388.313 627.053C386.552 627.955 384.603 628.426 382.625 628.428ZM356.125 683.928C354.438 683.928 352.75 683.553 351.188 682.803C347.875 681.241 345.5 678.116 344.813 674.428C341.438 654.428 324.938 645.991 324.313 645.678C322.969 645.019 321.769 644.101 320.781 642.978C319.793 641.854 319.036 640.546 318.554 639.13C318.073 637.713 317.875 636.215 317.973 634.722C318.071 633.229 318.462 631.77 319.125 630.428C321.875 624.866 328.625 622.428 334.25 625.178C335.188 625.678 354.313 634.991 363.5 657.178C386.563 650.428 405.875 659.366 406.812 659.866C409.539 661.159 411.641 663.482 412.655 666.324C413.668 669.167 413.512 672.295 412.219 675.022C410.926 677.749 408.603 679.85 405.76 680.864C402.918 681.878 399.789 681.721 397.062 680.428C396.25 680.053 379.438 672.678 361.75 682.553C360.017 683.469 358.085 683.941 356.125 683.928ZM350 741.928C347.125 741.928 344.313 740.803 342.125 738.803C327.25 724.803 308.688 728.116 308.438 728.178C302.25 729.428 296.25 725.428 295 719.303C293.75 713.116 297.75 707.116 303.938 705.866C305 705.678 325.875 701.616 346.563 713.803C360.813 694.553 381.688 690.053 382.688 689.866C385.637 689.297 388.692 689.912 391.191 691.579C393.69 693.246 395.433 695.829 396.041 698.771C396.649 701.713 396.074 704.776 394.44 707.297C392.807 709.818 390.246 711.594 387.313 712.241C386.438 712.428 368.5 716.616 360.375 735.178C359.502 737.199 358.052 738.918 356.206 740.119C354.361 741.32 352.202 741.949 350 741.928ZM362.188 802.178C359.375 802.178 356.5 801.053 354.375 799.116C339.5 785.116 320.875 788.428 320.688 788.491C314.5 789.741 308.5 785.741 307.25 779.553C306 773.366 309.938 767.303 316.188 766.116C317.188 765.928 338.125 761.866 358.813 774.053C373.063 754.803 393.875 750.366 394.938 750.116C397.913 749.511 401.007 750.112 403.539 751.789C406.07 753.465 407.832 756.078 408.438 759.053C409.043 762.029 408.441 765.123 406.765 767.654C405.089 770.186 402.475 771.948 399.5 772.553C398.438 772.741 380.688 777.053 372.625 795.428C371.125 798.866 368.063 801.303 364.438 802.053C363.75 802.116 363 802.178 362.188 802.178ZM374.5 862.428C371.563 862.428 368.813 861.303 366.625 859.303C351.75 845.303 333.188 848.616 332.938 848.678C326.813 849.866 320.813 845.928 319.563 839.741C318.313 833.553 322.25 827.553 328.438 826.303C329.5 826.116 350.438 822.053 371.063 834.241C385.375 814.991 406.188 810.553 407.25 810.303C413.375 809.116 419.438 813.053 420.688 819.241C421.875 825.428 418 831.366 411.812 832.741C410.875 832.928 393 837.116 384.875 855.616C383.438 859.053 380.313 861.491 376.688 862.241C376 862.428 375.188 862.428 374.5 862.428ZM57.125 604.491C55.25 604.491 53.4375 604.116 51.75 603.116C50.8125 602.616 32.1875 592.241 24.125 569.678C0.750038 575.241 -18.0625 565.303 -19 564.803C-21.6499 563.359 -23.6187 560.922 -24.474 558.028C-25.3294 555.134 -25.0016 552.019 -23.5625 549.366C-20.5625 543.803 -13.75 541.741 -8.18746 544.741C-7.49996 545.116 9.06254 553.428 27.1875 544.428C30.5 542.741 34.375 542.866 37.6875 544.616C40.9375 546.428 43.125 549.616 43.5625 553.303C45.9375 573.491 62 582.741 62.625 583.053C68.0625 586.178 70.0625 593.116 67.0625 598.553C64.9375 602.366 61.0625 604.491 57.125 604.491ZM86.375 550.428C84.5 550.428 82.6875 549.928 80.9375 549.053C80 548.553 61.375 538.241 53.375 515.678C30.0625 521.303 11.1875 511.366 10.25 510.803C8.93249 510.094 7.76846 509.13 6.82508 507.969C5.8817 506.807 5.17764 505.47 4.75349 504.035C4.32935 502.6 4.19351 501.095 4.35382 499.607C4.51414 498.119 4.96742 496.678 5.68754 495.366C8.62504 489.803 15.5 487.741 21.0625 490.741C21.875 491.116 38.3125 499.428 56.375 490.428C59.75 488.741 63.625 488.866 66.875 490.616C70.1875 492.366 72.375 495.616 72.8125 499.303C75.1875 519.491 91.1875 528.741 91.875 529.116C97.3125 532.241 99.3125 539.178 96.3125 544.616C94.25 548.303 90.375 550.428 86.375 550.428ZM115.688 496.366C113.813 496.366 112 495.866 110.25 494.991C109.313 494.491 90.6875 484.178 82.6875 461.553C59.3125 467.116 40.5 457.178 39.5625 456.741C38.2486 456.027 37.0881 455.062 36.1476 453.9C35.207 452.738 34.5048 451.402 34.081 449.968C33.6573 448.534 33.5203 447.031 33.678 445.544C33.8357 444.057 34.2849 442.616 35 441.303C37.9375 435.741 44.8125 433.741 50.375 436.678C51.125 437.053 67.625 445.366 85.6875 436.366C89.0625 434.741 92.9375 434.803 96.1875 436.553C99.5 438.303 101.688 441.553 102.125 445.178C104.5 465.366 120.5 474.616 121.188 474.991C126.563 478.053 128.625 484.991 125.625 490.428C123.563 494.241 119.688 496.366 115.688 496.366ZM145 442.303C143.125 442.303 141.313 441.803 139.563 440.928C138.625 440.428 120 430.116 112 407.491C88.625 413.116 69.8125 403.178 68.875 402.678C63.3125 399.616 61.3125 392.678 64.3125 387.178C67.25 381.678 74.125 379.616 79.6875 382.553C80.4375 382.991 96.9375 391.241 115 382.303C118.375 380.616 122.25 380.741 125.5 382.491C128.813 384.178 131 387.491 131.438 391.116C133.813 411.303 149.813 420.553 150.5 420.928C155.875 423.991 157.938 430.866 154.938 436.366C152.875 440.178 148.938 442.303 145 442.303ZM161.125 367.741C160.75 367.741 160.313 367.741 159.938 367.678C158.875 367.616 137.688 365.178 121.688 347.366C102.25 361.428 81 359.428 80.0625 359.366C73.8125 358.678 69.25 353.116 69.9375 346.803C70.625 340.553 76.25 336.116 82.4375 336.616C83.4375 336.741 101.625 337.991 115 322.803C117.438 319.991 121.063 318.553 124.75 318.928C128.375 319.303 131.688 321.428 133.438 324.678C143.438 342.428 161.688 344.803 162.5 344.928C168.688 345.678 173.188 351.366 172.563 357.553C171.75 363.428 166.875 367.741 161.125 367.741ZM167.5 306.553C167.125 306.553 166.688 306.491 166.313 306.491C165.25 306.366 144.063 303.928 128.063 286.116C108.563 300.241 87.375 298.178 86.4375 298.116C80.1875 297.428 75.625 291.803 76.25 285.553C76.9375 279.366 82.4375 274.928 88.75 275.366C89.6875 275.491 107.938 276.803 121.313 261.553C123.688 258.803 127.313 257.303 131.063 257.741C134.688 258.178 138 260.241 139.75 263.491C149.688 281.241 168 283.678 168.813 283.741C171.805 284.117 174.532 285.648 176.412 288.006C178.292 290.365 179.176 293.365 178.875 296.366C178.125 302.241 173.25 306.553 167.5 306.553ZM173.938 245.428C173.563 245.428 173.125 245.428 172.75 245.366C171.688 245.241 150.5 242.803 134.438 224.991C115.063 239.116 93.875 237.116 92.8125 236.991C86.5625 236.303 82 230.741 82.625 224.428C83.3125 218.241 88.8125 213.741 95.0625 214.241C96 214.366 114.313 215.678 127.688 200.491C130.125 197.678 133.75 196.241 137.438 196.678C141.063 197.053 144.375 199.241 146.125 202.428C156.063 220.178 174.375 222.616 175.188 222.678C178.18 223.055 180.907 224.585 182.787 226.944C184.667 229.302 185.551 232.302 185.25 235.303C184.563 241.116 179.625 245.428 173.938 245.428ZM183.813 198.741C182.25 198.741 180.625 198.366 179.125 197.678C178.125 197.303 158.938 188.178 149.375 166.116C126.563 173.303 107.063 164.616 106.063 164.116C100.313 161.491 97.8125 154.741 100.438 148.991C103.063 143.303 109.75 140.803 115.5 143.366C116.375 143.678 133.25 150.803 150.75 140.741C152.319 139.788 154.102 139.243 155.936 139.155C157.77 139.068 159.597 139.441 161.25 140.241C164.625 141.741 167.063 144.866 167.688 148.491C171.438 168.491 188 176.678 188.688 176.991C194.375 179.678 196.813 186.428 194.188 192.116C192.188 196.303 188.125 198.741 183.813 198.741ZM209.5 142.866C207.938 142.866 206.313 142.553 204.75 141.803C203.813 141.428 184.563 132.303 175.063 110.303C152.125 117.428 132.688 108.741 131.75 108.366C130.387 107.742 129.161 106.857 128.14 105.759C127.12 104.661 126.326 103.374 125.803 101.969C125.281 100.564 125.04 99.0705 125.096 97.5729C125.151 96.0753 125.501 94.6032 126.125 93.2408C128.688 87.5533 135.438 85.0533 141.188 87.6158C142.125 87.9908 158.938 95.1158 176.438 84.9908C179.625 83.1158 183.563 82.9283 186.938 84.4908C190.313 85.9908 192.688 89.1158 193.375 92.7408C197.063 112.741 213.625 120.928 214.375 121.241C220 123.928 222.438 130.678 219.813 136.366C217.875 140.428 213.75 142.866 209.5 142.866ZM235.188 86.9283C233.625 86.9283 231.938 86.6158 230.438 85.9283C229.5 85.4908 210.25 76.3658 200.75 54.3658C177.875 61.4908 158.375 52.8033 157.375 52.3658C154.64 51.0878 152.517 48.7854 151.464 45.9556C150.412 43.1257 150.515 39.9956 151.75 37.2408C154.375 31.4908 161.125 28.9908 166.813 31.5533C167.813 31.9908 184.625 39.0533 202.125 28.9283C205.313 27.0533 209.25 26.8658 212.563 28.4283C216 29.9908 218.375 33.0533 219 36.7408C222.75 56.6783 239.313 64.8658 240.063 65.1783C245.688 67.8658 248.125 74.6783 245.438 80.3033C243.563 84.4908 239.438 86.9283 235.188 86.9283ZM250.188 51.4283C246.5 51.4283 242.813 49.5533 240.625 46.2408C240 45.3658 228.625 27.4283 232.313 3.67831C209.125 -2.50919 197.313 -20.2592 196.75 -21.1342C193.313 -26.3842 194.813 -33.4467 200.125 -36.8842C201.368 -37.7029 202.76 -38.2683 204.222 -38.5481C205.683 -38.8279 207.186 -38.8165 208.643 -38.5146C210.101 -38.2127 211.484 -37.6262 212.714 -36.7887C213.944 -35.9513 214.997 -34.8793 215.813 -33.6342C216.375 -32.7592 226.875 -17.8217 247 -17.0717C250.75 -16.9467 254.125 -14.9467 256.188 -11.8842C258.188 -8.82169 258.563 -4.88419 257.25 -1.44669C249.75 17.4908 259.625 33.6158 259.75 33.7408C263.188 39.0533 261.688 46.1158 256.375 49.5533C254.5 50.8033 252.313 51.4283 250.188 51.4283ZM301.75 17.8658C298 17.8658 294.375 15.9908 292.188 12.6783C291.563 11.8033 280.188 -6.19669 283.875 -29.8842C260.688 -36.0717 248.875 -53.7592 248.313 -54.6967C244.875 -60.0092 246.375 -67.0717 251.625 -70.5092C256.875 -73.9467 264 -72.5092 267.375 -67.1967C267.938 -66.3842 278.438 -51.4467 298.563 -50.6342C302.25 -50.5092 305.688 -48.5717 307.688 -45.5092C309.75 -42.4467 310.125 -38.5092 308.75 -35.0717C301.25 -16.0717 311.188 0.0533142 311.25 0.240814C314.688 5.49081 313.25 12.6158 307.938 15.9908C306.063 17.2408 303.875 17.8658 301.75 17.8658ZM347.125 -13.8217C342.813 -13.8217 338.688 -16.3217 336.75 -20.5717C336.375 -21.5092 327.813 -41.0092 335.063 -63.8842C313.125 -73.5717 304.188 -92.8842 303.75 -93.8217C301.188 -99.5717 303.75 -106.384 309.5 -108.947C315.25 -111.509 321.938 -108.947 324.563 -103.259C324.938 -102.384 333 -85.8842 352.813 -82.0717C356.5 -81.3842 359.563 -79.0092 361.063 -75.5717C362.563 -72.1342 362.375 -68.2592 360.5 -65.1342C350.188 -47.5717 357.313 -30.5717 357.563 -29.8217C360.063 -24.0717 357.438 -17.3217 351.688 -14.8217C350.25 -14.1967 348.688 -13.8217 347.125 -13.8217ZM400 -29.6342C395 -29.6342 390.438 -32.9467 389.063 -38.0092C388.813 -39.0092 383.313 -59.5717 394.063 -81.0092C373.875 -94.0092 368 -114.447 367.75 -115.447C366.063 -121.509 369.688 -127.822 375.75 -129.509C381.75 -131.197 388.063 -127.572 389.75 -121.572C390 -120.759 395.438 -103.134 414.438 -96.3217C416.158 -95.6912 417.704 -94.658 418.944 -93.3085C420.184 -91.959 421.083 -90.3323 421.567 -88.5644C422.05 -86.7964 422.103 -84.9385 421.722 -83.1457C421.341 -81.353 420.536 -79.6775 419.375 -78.2592C406.438 -62.5717 411 -44.1342 411.062 -44.0092C412.688 -37.9467 409.125 -31.6342 403.062 -29.9467C402.062 -29.7592 401.063 -29.6342 400 -29.6342Z" fill="#F1F1F1"/>
</g>
</g>
</g>
<defs>
<clipPath id="clip0_169_991">
<rect width="800" height="800" fill="white" transform="translate(0 0.241211)"/>
</clipPath>
</defs>
</svg>
