<svg width="35" height="35" viewBox="0 0 35 35" fill="none" xmlns="http://www.w3.org/2000/svg">
<path d="M7.83844 30.2596L4.74076 27.162C4.48576 26.9077 4.17209 26.7201 3.82744 26.6158C3.48279 26.5115 3.11776 26.4936 2.76457 26.5638C2.41137 26.6339 2.08088 26.7899 1.80225 27.018C1.52363 27.2462 1.30545 27.5394 1.16696 27.8718C1.00102 28.2721 0.957549 28.7127 1.04204 29.1377C1.12653 29.5628 1.33519 29.9532 1.64162 30.2596L4.74076 33.3588C4.94425 33.5622 5.18581 33.7235 5.45165 33.8335C5.71749 33.9436 6.0024 34.0002 6.29012 34.0001C6.57783 34.0001 6.86271 33.9433 7.1285 33.8332C7.39429 33.723 7.63577 33.5615 7.83917 33.3581C8.04257 33.1546 8.20389 32.913 8.31393 32.6472C8.42397 32.3813 8.48057 32.0964 8.48051 31.8087C8.48044 31.521 8.4237 31.2361 8.31354 30.9703C8.20337 30.7045 8.04193 30.463 7.83844 30.2596Z" stroke="black" stroke-width="2" stroke-linecap="round" stroke-linejoin="round"/>
<path d="M15.8754 23.87L11.1303 19.1234M8.02827 23.0185L11.9818 26.972M4.74072 27.1619C4.74072 27.1619 22.3731 4.88223 24.5113 2.74262C25.5495 1.7752 26.9227 1.24852 28.3415 1.27356C29.7604 1.29859 31.1142 1.87338 32.1176 2.87683C33.121 3.88027 33.6958 5.23403 33.7209 6.6529C33.7459 8.07177 33.2192 9.44496 32.2518 10.4832C30.118 12.6272 7.8384 30.2581 7.8384 30.2581L4.74072 27.1619Z" stroke="black" stroke-width="2" stroke-linecap="round" stroke-linejoin="round"/>
</svg>
