<svg width="32" height="33" viewBox="0 0 32 33" fill="none" xmlns="http://www.w3.org/2000/svg">
<path d="M25.4935 9.89938C25.6519 9.74611 25.7782 9.56273 25.8652 9.35995C25.9521 9.15718 25.9979 8.93906 25.9999 8.71833C26.0019 8.4976 25.9601 8.27868 25.8769 8.07434C25.7937 7.87 25.6707 7.68434 25.5152 7.52818C25.3597 7.37202 25.1747 7.24849 24.9711 7.16481C24.7674 7.08113 24.5492 7.03896 24.3292 7.04078C24.1092 7.04259 23.8917 7.08834 23.6895 7.17537C23.4872 7.2624 23.3043 7.38896 23.1514 7.54766L16.5094 14.2083L9.8696 7.54766C9.71788 7.38433 9.53493 7.25333 9.33165 7.16247C9.12837 7.07161 8.90893 7.02275 8.68642 7.01881C8.46391 7.01488 8.24289 7.05594 8.03654 7.13955C7.83019 7.22315 7.64274 7.3476 7.48538 7.50546C7.32802 7.66332 7.20396 7.85135 7.12061 8.05835C7.03726 8.26534 6.99633 8.48706 7.00026 8.71027C7.00418 8.93348 7.05289 9.15361 7.14346 9.35753C7.23404 9.56145 7.36463 9.74498 7.52744 9.89717L14.1628 16.56L7.52303 23.2207C7.2303 23.5358 7.07094 23.9526 7.07851 24.3833C7.08609 24.8139 7.26001 25.2249 7.56363 25.5294C7.86726 25.834 8.27688 26.0085 8.7062 26.0161C9.13553 26.0237 9.55103 25.8638 9.86518 25.5702L16.5094 18.9095L23.1492 25.5724C23.4633 25.866 23.8788 26.0259 24.3081 26.0183C24.7375 26.0107 25.1471 25.8362 25.4507 25.5317C25.7543 25.2271 25.9283 24.8162 25.9358 24.3855C25.9434 23.9548 25.784 23.538 25.4913 23.2229L18.856 16.56L25.4935 9.89938Z" fill="black"/>
</svg>
