<svg width="38" height="33" viewBox="0 0 38 33" fill="none" xmlns="http://www.w3.org/2000/svg">
<path d="M18.9999 0.0498047C7.43283 0.0498047 0.818115 12.171 0.818115 12.171L14.4285 26.4221C14.7921 26.0238 15.225 25.5909 15.7099 25.2792L9.82244 19.0974L18.9999 9.93725L28.1774 19.0974L22.29 25.2792C22.7748 25.5909 23.2077 26.0238 23.5714 26.4221L37.1818 12.171C37.1818 12.171 30.567 0.0498047 18.9999 0.0498047ZM18.9999 7.47838L8.61032 17.8507L2.99993 11.9459C4.83543 9.14071 10.5151 1.78141 18.9999 1.78141C27.4501 1.78141 33.1471 9.15803 34.9999 11.9459L29.3895 17.8507L18.9999 7.47838ZM20.7315 19.0974C20.7315 20.0498 19.9523 20.829 18.9999 20.829C18.0476 20.829 17.2683 20.0498 17.2683 19.0974C17.2683 18.145 18.0476 17.3658 18.9999 17.3658C19.9523 17.3658 20.7315 18.145 20.7315 19.0974ZM21.5973 31.2186L18.9999 32.9502L16.4025 31.2186V27.7554H21.5973V31.2186Z" fill="black"/>
</svg>
