<svg width="33" height="33" viewBox="0 0 33 33" fill="none" xmlns="http://www.w3.org/2000/svg">
<path d="M6.88794 0.886353C7.08339 0.882056 7.30314 0.938703 7.51782 1.22034C6.77266 3.7307 5.97601 6.78012 5.80298 9.45471V9.45569C5.71883 10.7946 5.77115 12.1117 6.16821 13.2731L6.2522 13.5035C6.73472 14.7685 7.7497 15.8295 9.2356 16.151V16.152C10.7516 16.484 12.0774 15.7013 13.0344 14.7389C13.9851 13.7827 14.8117 12.4747 15.5706 11.068L15.5715 11.067C16.3317 9.65113 17.0499 8.07249 17.719 6.56409C18.3875 5.05693 19.0014 3.63132 19.5715 2.45862C19.6097 2.39428 19.7256 2.29164 20.0237 2.36292C20.3278 2.43579 20.5581 2.64812 20.6243 2.86487L20.6301 2.88342L20.637 2.90198C20.7873 3.3147 20.8898 4.08228 20.7092 5.32776C20.6322 5.55792 20.5511 5.78685 20.4719 6.01624L19.8782 6.2262L18.6057 6.67249L17.8889 6.92346L18.1487 7.63733L18.5266 8.67444L17.4651 8.94983L16.7307 9.14026L16.929 9.8717L17.2786 11.1598L17.4719 11.8746L17.7561 11.8014C17.361 12.3853 16.9232 12.9559 16.4309 13.5094L15.9241 14.0787L16.5012 14.5768L17.5198 15.4547L18.0774 15.9352L18.5686 15.3864C19.2465 14.6287 19.8329 13.8394 20.3469 13.0387L20.8401 12.8668L20.8684 12.8561L21.1428 14.0026L21.2649 14.5143C20.8897 14.9943 20.4927 15.4719 20.0647 15.9459L19.5579 16.5065L20.1233 17.0084L21.1272 17.901L21.6838 18.3961L22.1829 17.8424C22.7918 17.1665 23.3437 16.483 23.8557 15.8014L23.8596 15.8141L24.5774 15.5973L24.7161 15.5543L24.9309 16.8444L25.0334 17.4694C24.7158 17.8471 24.376 18.2259 24.0012 18.6061L23.4719 19.1432L24.012 19.6696L24.9729 20.6051L25.5061 21.1246L26.0295 20.5953C26.6468 19.9708 27.1782 19.3579 27.6565 18.7584L27.9221 19.4498L28.6194 19.1862L29.8782 18.7115L30.5842 18.4449L30.3137 17.7408L29.9368 16.7623L30.6614 16.6412L31.4036 16.5162L31.2766 15.775L31.0627 14.526C31.3196 14.3571 31.5277 14.2673 31.6702 14.2301L31.6711 14.2311C31.85 14.1849 31.9159 14.1971 31.9241 14.1989C31.9267 14.1994 31.9287 14.1998 31.9338 14.2028C31.9413 14.207 31.9595 14.2189 31.9905 14.2477L31.9944 14.2516C32.049 14.3017 32.2052 14.5423 32.2424 15.0358C32.2772 15.4972 32.1979 16.0955 31.9055 16.7448C29.2633 22.6084 25.9759 26.3115 18.7151 30.6832C16.8001 31.5203 13.9194 32.4283 10.9944 32.0074H10.9934C8.09973 31.5918 4.99878 29.9233 2.48853 25.0162V25.0153L2.27271 24.5641C1.23597 22.2164 0.777534 18.5594 1.15161 14.5533C1.54925 10.3101 2.85577 5.78141 5.10962 2.10706C5.29598 1.81688 5.59476 1.50132 5.94067 1.26038C6.29327 1.01487 6.62867 0.892052 6.88794 0.886353ZM28.5266 8.46448C28.577 8.45598 28.6741 8.46346 28.8059 8.55432C29.0817 8.74446 29.3386 9.19445 29.2639 9.73889H29.2629L29.262 9.74963C29.1947 10.2968 28.9581 11.0251 28.6282 11.819C28.5293 12.0568 28.4219 12.2947 28.3137 12.5309L28.1907 12.2086L27.8303 12.3434L27.5344 11.1061L27.3616 10.3805L27.302 10.3942C27.6263 9.82422 27.9456 9.25566 28.2629 8.69202C28.388 8.49944 28.4896 8.47081 28.5266 8.46448ZM22.4504 11.1246L22.2708 10.6324L22.2991 10.6246L22.4504 11.1246ZM8.65454 9.43811C9.97636 9.78755 11.3212 10.1077 12.7073 10.3649C12.6638 10.4399 12.618 10.5125 12.5745 10.5856C11.3233 10.4568 10.001 10.1376 8.63501 9.6842L8.63794 9.64124V9.6344C8.6419 9.56907 8.64915 9.50391 8.65454 9.43811ZM24.2483 5.38245C24.4591 5.28975 24.6316 5.3092 24.7893 5.40002C25.145 5.60489 25.6174 6.33899 25.5364 7.72229C25.289 8.16377 25.0419 8.60277 24.7932 9.03967L24.7786 8.98889L24.0608 9.20178L23.8186 9.27307L23.5217 8.14612L23.3303 7.42151L22.967 7.51624C23.1168 7.09466 23.2582 6.67577 23.3977 6.26233C23.7127 5.73303 24.0218 5.48211 24.2483 5.38245ZM9.89185 3.25354C11.5514 3.76246 13.5431 4.16116 15.6233 4.26331C15.5748 4.37329 15.5254 4.48312 15.4768 4.59338C14.8531 4.60327 14.1429 4.56899 13.3987 4.47229H13.3958C12.2087 4.32285 10.9475 4.04281 9.77368 3.68616C9.81294 3.54125 9.85216 3.39693 9.89185 3.25354Z" stroke="black" stroke-width="1.5"/>
</svg>
