<svg width="24" height="25" viewBox="0 0 24 25" fill="none" xmlns="http://www.w3.org/2000/svg">
<path d="M7.8 2.37109H16.2C19.4 2.37109 22 4.97109 22 8.17109V16.5711C22 18.1094 21.3889 19.5846 20.3012 20.6723C19.2135 21.76 17.7383 22.3711 16.2 22.3711H7.8C4.6 22.3711 2 19.7711 2 16.5711V8.17109C2 6.63284 2.61107 5.15759 3.69878 4.06987C4.78649 2.98216 6.26174 2.37109 7.8 2.37109ZM7.6 4.37109C6.64522 4.37109 5.72955 4.75038 5.05442 5.42551C4.37928 6.10064 4 7.01631 4 7.97109V16.7711C4 18.7611 5.61 20.3711 7.6 20.3711H16.4C17.3548 20.3711 18.2705 19.9918 18.9456 19.3167C19.6207 18.6415 20 17.7259 20 16.7711V7.97109C20 5.98109 18.39 4.37109 16.4 4.37109H7.6ZM17.25 5.87109C17.5815 5.87109 17.8995 6.00279 18.1339 6.23721C18.3683 6.47163 18.5 6.78957 18.5 7.12109C18.5 7.45261 18.3683 7.77056 18.1339 8.00498C17.8995 8.2394 17.5815 8.37109 17.25 8.37109C16.9185 8.37109 16.6005 8.2394 16.3661 8.00498C16.1317 7.77056 16 7.45261 16 7.12109C16 6.78957 16.1317 6.47163 16.3661 6.23721C16.6005 6.00279 16.9185 5.87109 17.25 5.87109ZM12 7.37109C13.3261 7.37109 14.5979 7.89788 15.5355 8.83556C16.4732 9.77324 17 11.045 17 12.3711C17 13.6972 16.4732 14.9689 15.5355 15.9066C14.5979 16.8443 13.3261 17.3711 12 17.3711C10.6739 17.3711 9.40215 16.8443 8.46447 15.9066C7.52678 14.9689 7 13.6972 7 12.3711C7 11.045 7.52678 9.77324 8.46447 8.83556C9.40215 7.89788 10.6739 7.37109 12 7.37109ZM12 9.37109C11.2044 9.37109 10.4413 9.68716 9.87868 10.2498C9.31607 10.8124 9 11.5754 9 12.3711C9 13.1667 9.31607 13.9298 9.87868 14.4924C10.4413 15.055 11.2044 15.3711 12 15.3711C12.7956 15.3711 13.5587 15.055 14.1213 14.4924C14.6839 13.9298 15 13.1667 15 12.3711C15 11.5754 14.6839 10.8124 14.1213 10.2498C13.5587 9.68716 12.7956 9.37109 12 9.37109Z" fill="currentColor"/>
</svg>
