<svg width="32" height="33" viewBox="0 0 32 33" fill="none" xmlns="http://www.w3.org/2000/svg">
<path d="M6.66663 12.3714C6.66663 9.89606 7.64996 7.5221 9.4003 5.77176C11.1506 4.02142 13.5246 3.03809 16 3.03809C18.4753 3.03809 20.8493 4.02142 22.5996 5.77176C24.35 7.5221 25.3333 9.89606 25.3333 12.3714V20.3714C25.3333 21.5971 25.0919 22.8108 24.6228 23.9431C24.1538 25.0755 23.4663 26.1044 22.5996 26.9711C21.7329 27.8378 20.704 28.5253 19.5717 28.9943C18.4393 29.4633 17.2256 29.7048 16 29.7048C14.7743 29.7048 13.5606 29.4633 12.4282 28.9943C11.2959 28.5253 10.267 27.8378 9.4003 26.9711C8.53362 26.1044 7.84613 25.0755 7.37708 23.9431C6.90804 22.8108 6.66663 21.5971 6.66663 20.3714V12.3714Z" stroke="white" stroke-width="2"/>
<path d="M14 11.7051C14 11.1746 14.2107 10.6659 14.5858 10.2909C14.9609 9.91579 15.4696 9.70508 16 9.70508C16.5304 9.70508 17.0391 9.91579 17.4142 10.2909C17.7893 10.6659 18 11.1746 18 11.7051V14.3717C18 14.9022 17.7893 15.4109 17.4142 15.786C17.0391 16.161 16.5304 16.3717 16 16.3717C15.4696 16.3717 14.9609 16.161 14.5858 15.786C14.2107 15.4109 14 14.9022 14 14.3717V11.7051Z" stroke="white" stroke-width="2"/>
<path d="M16 3.03809V9.70475" stroke="white" stroke-width="2" stroke-linecap="round"/>
</svg>
