<svg width="43" height="39" viewBox="0 0 43 39" fill="none" xmlns="http://www.w3.org/2000/svg">
<g filter="url(#filter0_d_172_1034)">
<path d="M14.7791 0.371094C15.9227 0.371094 17.0194 0.820616 17.8279 1.62077C18.6365 2.42093 19.0908 3.50617 19.0908 4.63776V17.4378C19.0908 24.1151 15.5337 28.5162 8.83552 30.1738C8.56015 30.2441 8.27343 30.2598 7.99188 30.22C7.71034 30.1802 7.43953 30.0857 7.19507 29.9419C6.9506 29.7981 6.73731 29.6078 6.56748 29.3821C6.39764 29.1563 6.27463 28.8995 6.20552 28.6265C6.1364 28.3535 6.12256 28.0697 6.16479 27.7914C6.20701 27.5131 6.30447 27.2458 6.45155 27.0049C6.59862 26.764 6.79241 26.5543 7.02174 26.3879C7.25108 26.2214 7.51143 26.1015 7.78779 26.0351C12.5888 24.8468 14.7791 22.1375 14.7791 17.4378V15.3044H8.31166C7.22388 15.3048 6.17617 14.8982 5.37855 14.1663C4.58093 13.4344 4.09236 12.4312 4.01078 11.3578L4 11.0378V4.63776C4 3.50617 4.45426 2.42093 5.26286 1.62077C6.07145 0.820616 7.16814 0.371094 8.31166 0.371094H14.7791ZM34.1816 0.371094C35.3251 0.371094 36.4218 0.820616 37.2304 1.62077C38.039 2.42093 38.4933 3.50617 38.4933 4.63776V17.4378C38.4933 24.1151 34.9361 28.5162 28.238 30.1738C27.9626 30.2441 27.6759 30.2598 27.3943 30.22C27.1128 30.1802 26.842 30.0857 26.5975 29.9419C26.3531 29.7981 26.1398 29.6078 25.9699 29.3821C25.8001 29.1563 25.6771 28.8995 25.608 28.6265C25.5389 28.3535 25.525 28.0697 25.5672 27.7914C25.6095 27.5131 25.7069 27.2458 25.854 27.0049C26.0011 26.764 26.1949 26.5543 26.4242 26.3879C26.6535 26.2214 26.9139 26.1015 27.1903 26.0351C31.9913 24.8468 34.1816 22.1375 34.1816 17.4378V15.3044H27.7141C26.6263 15.3048 25.5786 14.8982 24.781 14.1663C23.9834 13.4344 23.4948 12.4312 23.4132 11.3578L23.4025 11.0378V4.63776C23.4025 3.50617 23.8567 2.42093 24.6653 1.62077C25.4739 0.820616 26.5706 0.371094 27.7141 0.371094H34.1816Z" fill="#F4BD01"/>
</g>
<defs>
<filter id="filter0_d_172_1034" x="0" y="0.371094" width="42.4933" height="37.8701" filterUnits="userSpaceOnUse" color-interpolation-filters="sRGB">
<feFlood flood-opacity="0" result="BackgroundImageFix"/>
<feColorMatrix in="SourceAlpha" type="matrix" values="0 0 0 0 0 0 0 0 0 0 0 0 0 0 0 0 0 0 127 0" result="hardAlpha"/>
<feOffset dy="4"/>
<feGaussianBlur stdDeviation="2"/>
<feComposite in2="hardAlpha" operator="out"/>
<feColorMatrix type="matrix" values="0 0 0 0 0 0 0 0 0 0 0 0 0 0 0 0 0 0 0.25 0"/>
<feBlend mode="normal" in2="BackgroundImageFix" result="effect1_dropShadow_172_1034"/>
<feBlend mode="normal" in="SourceGraphic" in2="effect1_dropShadow_172_1034" result="shape"/>
</filter>
</defs>
</svg>
