<svg width="24" height="25" viewBox="0 0 24 25" fill="none" xmlns="http://www.w3.org/2000/svg">
<path d="M9.95561 14.9376L15.2609 11.8709L9.95561 8.80422V14.9376ZM21.7725 6.93355C21.9054 7.414 21.9974 8.058 22.0587 8.87578C22.1303 9.69355 22.1609 10.3989 22.1609 11.0122L22.2223 11.8709C22.2223 14.1096 22.0587 15.7553 21.7725 16.8082C21.5169 17.7282 20.9241 18.3211 20.0041 18.5767C19.5236 18.7096 18.6445 18.8016 17.2952 18.8629C15.9663 18.9344 14.7498 18.9651 13.6254 18.9651L12.0001 19.0264C7.71694 19.0264 5.04894 18.8629 3.99605 18.5767C3.07605 18.3211 2.48317 17.7282 2.22761 16.8082C2.09472 16.3278 2.00272 15.6838 1.94139 14.866C1.86983 14.0482 1.83917 13.3429 1.83917 12.7296L1.77783 11.8709C1.77783 9.63222 1.94139 7.98644 2.22761 6.93355C2.48317 6.01355 3.07605 5.42067 3.99605 5.16511C4.4765 5.03222 5.35561 4.94022 6.70494 4.87889C8.03383 4.80733 9.25028 4.77667 10.3747 4.77667L12.0001 4.71533C16.2832 4.71533 18.9512 4.87889 20.0041 5.16511C20.9241 5.42067 21.5169 6.01355 21.7725 6.93355Z" fill="currentColor"/>
</svg>
